Coordinates
version=1
nRows=9
nColumns=36
inDegrees=yes

Units are S.I. units (second, meters, Newtons, ...)
If the header above contains a line with 'inDegrees', this indicates whether rotational values are in degrees (yes) or radians (no).

endheader
time	pelvis_tilt	pelvis_list	pelvis_rotation	pelvis_tx	pelvis_ty	pelvis_tz	hip_flexion_r	hip_adduction_r	hip_rotation_r	knee_angle_r	knee_angle_r_beta	ankle_angle_r	subtalar_angle_r	mtp_angle_r	hip_flexion_l	hip_adduction_l	hip_rotation_l	knee_angle_l	knee_angle_l_beta	ankle_angle_l	subtalar_angle_l	mtp_angle_l	lumbar_extension	lumbar_bending	lumbar_rotation	arm_flex_r	arm_add_r	arm_rot_r	elbow_flex_r	pro_sup_r	arm_flex_l	arm_add_l	arm_rot_l	elbow_flex_l	pro_sup_l
      5.13333330	    -14.11908912	      0.52217085	      9.25526015	      0.88073946	      0.92310817	      0.20689958	     37.13347426	      3.33557691	     -3.06063554	     43.77272363	      0.76397815	     28.32703875	     -2.07872278	     -7.49999987	     58.74556808	     -8.39506324	      0.55065205	     33.17092733	      0.57894190	     -2.97830706	    -10.84284897	     -7.49999987	    -14.13172059	      3.60900717	      4.70741599	     57.39954082	     -9.95576748	     66.71060614	    124.74551285	     89.88995080	     62.55533152	     -0.78424116	     74.58750360	    122.80820960	    100.33360135
      5.15000000	    -14.90916626	      0.27765754	      9.31099683	      0.88096841	      0.91380919	      0.20660537	     39.36271293	      3.38597741	     -3.32913248	     46.02135705	      0.80322421	     29.40853797	     -1.87583776	     -7.49999987	     60.49152824	     -8.43106414	      0.91034206	     34.44832265	      0.60123665	     -3.10855693	    -11.41774990	     -7.49999987	    -13.76186269	      3.81200154	      4.55383244	     57.79619676	     -9.88746151	     66.66882096	    124.63534701	     88.53056309	     63.16327169	     -1.03340547	     74.62744707	    123.01388772	     98.80953881
      5.16666670	    -15.43039460	     -0.03517603	      9.38402947	      0.87475397	      0.90945015	      0.20973164	     41.20716512	      3.58883586	     -3.53688713	     47.89231588	      0.83587860	     30.01473760	     -1.92203948	     -7.49999987	     62.00788389	     -8.53010662	      1.28678473	     35.50404983	      0.61966257	     -3.29847038	    -11.78437615	     -7.49999987	    -13.89908372	      4.04456467	      4.67712293	     58.39581809	     -9.80623647	     66.12216734	    124.20601555	     88.54053336	     63.89946382	     -1.20948028	     74.62569697	    123.46621585	     99.09593946
      5.18333330	    -16.02676984	     -0.25584877	      9.48057924	      0.87468873	      0.90553232	      0.20927282	     42.68069224	      3.73549923	     -3.53371599	     49.21283563	      0.85892602	     30.46235942	     -2.25546826	     -7.49999987	     63.20826636	     -8.49849007	      1.55546412	     36.23820519	      0.63247600	     -3.67155383	    -12.18608648	     -7.49999987	    -13.82213532	      4.22797197	      4.36021564	     58.68289092	     -9.21585750	     66.09032856	    123.60553953	     88.51072207	     63.67633544	     -1.73922994	     74.81178695	    123.54383930	    100.79892548
      5.20000000	    -16.67914615	     -0.45776994	      9.32293232	      0.86800168	      0.89813679	      0.20665138	     44.41083960	      3.81208590	     -3.59134787	     50.73467702	      0.88548716	     30.91544926	     -2.22473071	     -7.49999987	     64.45364418	     -8.51941348	      2.11017034	     37.00932206	      0.64593452	     -3.52936803	    -12.25739080	     -7.49999987	    -13.97445298	      4.42734383	      4.57697731	     59.62531360	     -9.64919858	     65.83997157	    123.03364115	     86.72129526	     64.29836784	     -1.61588362	     74.98297038	    123.18379582	     98.44333286
      5.21666670	    -17.03503534	     -0.75354550	      9.28367572	      0.86914879	      0.89234109	      0.21225143	     45.72962852	      4.15636365	     -3.64365547	     52.10319814	      0.90937236	     31.32647158	     -2.39250572	     -7.49999987	     65.56874696	     -8.68065567	      2.73411744	     37.77287059	      0.65926096	     -3.51989175	    -12.39784079	     -7.49999987	    -14.58705270	      4.49509234	      4.74123888	     60.08271262	     -9.60481425	     65.41414743	    122.42814120	     86.70667159	     65.00204984	     -2.35960959	     74.66576763	    122.53244177	     98.52737055
      5.23333330	    -18.02069138	     -1.28613407	      9.25424642	      0.86202127	      0.88706881	      0.20907941	     47.88535824	      4.40117201	     -3.96617090	     53.48737961	      0.93353088	     31.41178291	     -2.64774945	     -7.49999987	     67.48971770	     -8.76292105	      3.22808632	     38.45236080	      0.67112030	     -4.01251522	    -12.64581622	     -7.49999987	    -14.38379799	      5.05008459	      4.91557622	     61.05359392	     -9.98710435	     64.94334160	    121.80692328	     86.69439579	     65.28840181	     -2.66715130	     73.71163994	    122.15053526	     98.70383625
      5.25000000	    -18.51230400	     -1.62939221	      9.14081850	      0.86226680	      0.88365903	      0.20924380	     49.20361971	      4.57382423	     -4.15293796	     54.48429131	      0.95093027	     31.60981965	     -2.63511715	     -7.49999987	     68.73310965	     -8.88719924	      3.64192675	     38.91666577	      0.67922395	     -4.60151673	    -12.94532139	     -7.49999987	    -14.78387828	      5.23030311	      5.05674430	     61.35298367	     -9.80789001	     65.53690049	    122.35890662	     86.40925878	     65.39377228	     -2.95301626	     73.85934945	    122.52386496	     98.59054429
      5.26666670	    -19.77847638	     -2.06535881	      8.99858481	      0.85565224	      0.87557432	      0.20644112	     51.62905495	      4.59978543	     -4.36436343	     55.93213583	      0.97619993	     31.80810048	     -2.73976764	     -7.49999987	     71.08825576	     -8.89497709	      4.16732070	     39.75866336	      0.69391958	     -4.82125817	    -13.22186623	     -7.49999987	    -14.23962822	      5.73088300	      5.02270347	     62.27147699	    -10.10314355	     66.32965476	    122.57934756	     86.49063580	     65.34623473	     -3.06137258	     73.23580141	    122.23941833	     98.67394952
